<svg xmlns="http://www.w3.org/2000/svg" width="456.225" height="84" viewBox="0 0 120.71 22.225"><g font-weight="700" letter-spacing="0" word-spacing="0"><g aria-label="pygalmesh" style="line-height:0%;-inkscape-font-specification:'Commando Bold'" font-size="96" font-family="Rubino Serif Solid"><path d="M15.875 11.16h-.746q0 2.286-1.635 3.921-1.635 1.635-3.921 1.635v.746h-.096v-.746q-.682 0-1.349-.174-.667-.175-1.254-.492v2.476q.174-.492.571-.81.397-.301.921-.301v-.746h.095v.746q.635 0 1.112.476.476.476.476 1.111h.746v.096h-.746q0 .635-.476 1.11-.286.27-.635.382H10v.095H8.858v.699h1.143v.095H8.858v.746h-.095v-.746h-1.89v.746H6.78v-.746H4.016v.746h-.095v-.746H2.032v.746h-.095v-.746H.794v-.095h1.143v-.699H.794v-.095h1.063q-.349-.111-.635-.381-.476-.476-.476-1.111H0v-.096h.746q0-.65.476-1.127.46-.46 1.112-.46v-.746h.095v.746q.635 0 1.111.476.27.286.381.635V11.16h-.746v-.095h.746V8.46q-.111.35-.38.635-.477.477-1.112.477v.746h-.095v-.746q-.635 0-1.112-.477-.476-.476-.476-1.11H0V7.89h.746q0-.508.318-.905.301-.413.793-.587H.794v-.096h1.143v-.698H.794v-.095h1.143v-.747h.095v.747h1.89v-.747h.094v.747H6.78v-.747h.095v.747h.746v.095h-.746v.571q.619-.333 1.254-.492.635-.174 1.35-.174v-.747h.095v.747q2.286 0 3.92 1.635 1.636 1.635 1.636 3.92h.746zM9.573 6.35v.825q.65-.238 1.38-.238-.253-.285-.603-.428-.349-.159-.777-.159zm2.619 4q0-.968-.286-1.841-.27-.889-.794-1.476h-.158q-.62 0-1.286.206.73.302 1.381.92.92.921 1.143 2.191zM9.477 7.175V6.35q-.428 0-.793.159-.35.143-.635.428.762 0 1.428.238zm2.7 3.89q0-.794-.318-1.524-.302-.73-.905-1.334-.604-.603-1.381-.889v3.747h1.333v-.746h.095v.746zM7.714 5.92q-.238.08-.397.143-.158.064-.444.222l.238.016q.286-.238.603-.38zm-.698.477h-.143v.19zm2.365.841q-.667-.206-1.286-.206h-.143q-.46.508-.73 1.301-.254.794-.35 1.73v.175q.207-1 .874-1.794.683-.81 1.635-1.206zm.095 3.826V7.318q-.762.27-1.413.905-.555.572-.873 1.318-.317.73-.317 1.524h1.175v-.746h.095v.746zm2.7.095H11v.746h-.095v-.746H9.573v3.747q1.158-.46 1.873-1.46.73-1.001.73-2.287zm.015.714q-.222 1.27-1.143 2.191-.286.286-.65.54-.366.238-.731.381.667.206 1.286.206h.158q.508-.555.794-1.46.286-.92.286-1.858zM3.922 7.89q0-.588-.461-1.032-.445-.46-1.032-.46V7.89zm5.555 7.017V11.16H8.144v.746h-.095v-.746H6.874q0 .778.301 1.524.318.73.89 1.318.285.27.666.524.381.254.746.38zm1.524.38q-.762 0-1.428-.238v.826q.428 0 .777-.143.366-.159.651-.444zm-1.619-.301q-.73-.302-1.381-.92-.857-.89-1.127-2.08v.174q.095 1.016.333 1.762.254.746.746 1.27h.143q.365 0 .635-.031.27-.048.651-.175zM2.334 7.89V6.398l-.302.047v.699h-.095v-.667q-.35.095-.651.365Q.84 7.318.84 7.89zm1.587.095H2.43v1.492q.603 0 1.048-.444.444-.445.444-1.048zm5.556 7.89v-.826q-.666.239-1.38.239.253.285.602.444.35.143.778.143zM2.334 9.477V7.985H.84q0 .572.445 1.048.476.444 1.048.444zm5.508 6.874q-.619-.27-.968-.73v.317q.143.08.444.207.302.127.524.206zm2.112 2.651q0-.587-.46-1.047-.445-.445-1.033-.445v1.492zm0 .096H8.46v1.492l.302-.048v-.698h.095v.666q.46-.127.778-.523.318-.397.318-.89zm-1.588-.096V17.51q-.571 0-1.048.445-.444.476-.444 1.047zm0 1.588v-1.492H6.874q0 .571.444 1.047.477.445 1.048.445zm-4.445-1.588q0-.587-.46-1.047-.445-.445-1.032-.445v1.492zm-1.587 0V17.51q-.572 0-1.048.445-.445.476-.445 1.047zm1.587.096H2.43v1.492q.603 0 1.048-.445.444-.444.444-1.047zM2.334 20.59v-1.492H.84q0 .571.445 1.047.301.27.65.365v-.666h.096v.698z" style="-inkscape-font-specification:'Rubino Serif Solid weight=101'"/><path d="M30.204 7.985h-.762q0 .635-.46 1.111-.46.477-1.111.477v.746h-.096v-.746q-.635 0-1.111-.477-.476-.476-.476-1.11l-2.08 5.635.413.889-.08.031-.38-.793-1.334 3.651.333.714-.079.032-.302-.619-1.508 4.127-.08-.031.493-1.35-.333.397q-.143.159-.334.286-.174.127-.412.238l-.239.651-.079-.032.206-.555q-.54.222-1.08.222-.38 0-.761-.127v.54h-.095v-.556q-.19-.08-.429-.19-.222-.112-.397-.255l-.286-.222-.238-.301q-.254-.35-.412-.81h-.572v-.095h.54q-.111-.413-.111-.746h.095q0 .158.016.333.032.19.095.413h.111q0-.651.46-1.127.477-.46 1.128-.46v-.747h.095v.746q.206 0 .35.048.158.047.364.143v-.143h.096v.206l.285.222.238.318h.223v.095h-.16q.08.159.128.334.048.174.048.365h.762v.095h-.762q0 .54-.35.968.62-.158 1.016-.65.397-.493.397-1.16 0-.587-.317-1.031l.079-.064q.333.508.333 1.096l-.015.142.46-1.254q-.095-.206-.206-.38-.112-.16-.27-.318l.079-.064q.27.302.429.635l.397-1.08-3.937-8.413h-.08q0 .635-.46 1.111-.46.477-1.111.477v.746h-.096v-.746q-.635 0-1.111-.477-.476-.476-.476-1.11h-.746V7.89h.746q0-.508.317-.905.302-.413.778-.587h-.524v-.096h.62v-.698h-.62v-.095h.62v-.747h.095v.747h.889l-.286-.62.08-.031.317.65h3.064l-.302-.666.08-.032.333.699h2.333v-.747h.096v.747h1.127v-.747h.095v.747h2.127l.286-.762.08.031-.255.73h.747l.27-.746.079.032-.254.715h1.492v-.747h.095v.747h.746v.095h-.746v.698h.746v.096h-.746v.142l.302.239q.476.476.476 1.11h.762zM28.57 6.493v-.095h-.222zm.778 1.397q0-.603-.445-1.048l-.238-.19v.492h-.095v-.54q-.365-.206-.698-.206V7.89zm-1.572 0V6.398q-.571 0-1.047.444-.175.206-.302.445l-.08.238q-.063.222-.063.365zm1.572.095H27.87v1.492q.603 0 1.031-.428.445-.445.445-1.064zm-3.874-.889q0-.27-.206-.476-.206-.207-.476-.207v.683zm2.302 2.381V7.985h-1.492q0 .603.46 1.048.46.444 1.032.444zm-3.413-3.08h-.365v.366q.127-.238.365-.365zm.334.7v-.684q-.254 0-.46.191-.207.19-.239.492zm.777.094h-.682v.683q.254 0 .46-.206.207-.207.222-.477zm-1.571-.889v-.698h-1.127v.698zm.794 1.572v-.683h-.699q.032.302.222.492.207.191.477.191zm-.794-.778v-.698h-1.127v.698zm-1.223-.333v-.365h-.365l.207.142zm-.015.333q0-.27-.207-.476-.206-.207-.476-.207v.683zm-.778 0v-.683q-.254 0-.46.191-.207.19-.239.492zm.778.095h-.683v.683q.254 0 .46-.206.207-.207.223-.477zm-.778.683v-.683h-.699q.032.302.222.492.207.191.477.191zm3.429-.111q-.254.222-.524.222v.746h-.095v-.746q-.302 0-.556-.238-.238-.254-.238-.556h-1.143q0 .302-.238.556-.223.238-.54.238v.746h-.095v-.746q-.286-.032-.477-.19l2.175 4.683zm-7.176.047v.08zm-.095.08q0-.207-.08-.445l-.142-.301q-.111-.19-.223-.302-.476-.444-1.031-.444V7.89zm-1.572 0V6.398l-.301.047v.699h-.096v-.667q-.349.095-.65.365-.445.445-.445 1.048zm1.572.095h-1.476v1.492q.603 0 1.031-.428.445-.445.445-1.064zm-1.572 1.492V7.985H14.98q0 .603.46 1.048.46.444 1.032.444zm.429 10.35q-.032-.079-.032-.269h-.08z" style="-inkscape-font-specification:'Rubino Serif Solid weight=101'"/><path d="M40.53 7.191h-.745v.746h-.096v-.746h-1.46l.302.445q.46.794.46 1.635h.746v.095h-.746q0 1.318-.937 2.223-.587.619-1.428.841-1.064.381-2.239.381v.873h.667v.095h-.667v.747h-.095v-.635q-.048.492-.381.825-.27.27-.635.365h1.445l1.793-.047v-.747h.096v.747h1.73v.095h-1.032q.905.222 1.54.857.937.937.937 2.27 0 1.334-.953 2.27-.936.953-2.27.953-.397 0-.778-.095l-1.286.047q-2.222 0-3.492-.571-1.254-.572-1.254-1.715h-.81v-.095h.81q0-.587.397-1.032.333-.38.936-.619-.11-.064-.222-.159-.095-.08-.222-.206-.953-.953-.953-2.27 0-.826.413-1.556.413-.73 1.111-1.175-.333-.206-.571-.444-.937-.905-.937-2.223h-.762v-.095h.762q0-.587.19-1.095.207-.508.588-.953.635-.778 1.635-1.222 1.016-.445 2.175-.445v-.794h.095v.794q1.62 0 2.81.746h2.492v-.746h.096v.746h.746v.096h-.746v.698h.746zm-6.016-.825l-.127-.016v.063zm-.222.047V6.35l-.111.016zm1.73 2.096q-.127-.794-.492-1.365-.365-.588-.857-.746l-.222.095q.222.127.38.254.175.111.366.301.635.635.825 1.461zm.016.762q0-.603-.238-1.159-.222-.556-.667-1-.301-.302-.746-.54v2.699zm-1.81-2.778l-.206-.095q-.476.158-.841.73-.365.571-.508 1.333.174-.619.571-1.127.413-.524.984-.841zm.064 2.778V6.572q-.429.238-.73.54-.905.905-.905 2.159zm1.746.095h-1.65v2.651l.126-.016q.715-.412 1.111-1.095.413-.698.413-1.54zm-.047.873q-.112.365-.318.715-.19.349-.476.635-.064.08-.207.19-.063.048-.238.175.477-.143.778-.603.318-.46.46-1.112zm-1.699 1.778v-2.65h-1.635q0 .602.222 1.158.238.556.683 1 .317.302.635.476zm-.365-.079q-.254-.159-.429-.35-.524-.523-.778-1.301.16.62.46 1.048.302.428.747.603zm.365 1.635v-.762l-.333-.016q.158.19.238.381.095.175.095.397zm-.08.111q0-.492-.38-.873-.223-.016-.477-.063-.254-.048-.397-.064v1zm0 .095h-1.254v1.255q.524 0 .89-.366.365-.365.365-.889zm-1.349-.095v-1.016l-.46-.127q-.207.095-.413.27-.365.397-.365.873zm4.794 5.366q0-.46-.317-.762-.318-.302-.73-.302v1.064zm-6.254-6.906l-.096-.047q-.635.38-1.031 1.047.206-.317.492-.555.285-.238.635-.445zm1.46 2.89v-1.255h-1.238q0 .477.365.874.381.38.873.38zm3.651 4.016v-1.064q-.396 0-.714.302-.317.302-.317.762zm1.143.095H36.61v1.048q.428 0 .73-.318.317-.301.317-.73zm1.413.984q-.428.46-1.159.762-.73.318-1.81.445l.461.048q.778 0 1.413-.334.635-.317 1.095-.92zm-2.206.127l-.254.032v.064zm-.35-.063v-1.048h-1.031q0 .445.317.746.318.302.714.302zm-.254-2.254h-2.794l-.555.047q.238.111.365.254.35.318.35.81h1.761q0-.381.238-.699.254-.301.635-.412zm.254 2.444v-.095q-.444 0-.793-.349-.334-.333-.334-.794h-1.762q0 .46-.349.794-.333.35-.794.35v.094q.397.127.842.191.444.063 1.095.063-.333-.285-.62-.73l.08-.063q.286.46.699.793 1.174 0 1.936-.254zM33.53 19.05q0-.46-.318-.762-.317-.302-.73-.302v1.064zm-1.286-1.143l-.286-.08q-.127.096-.206.191-.175.19-.286.397.286-.413.778-.508zm.143 1.143v-1.064q-.397 0-.714.302-.318.302-.318.762zm1.143.095h-1.048v1.048q.429 0 .73-.318.318-.301.318-.73zm-1.143 1.048v-1.048h-1.032q0 .445.318.746.317.302.714.302zm0 .159v-.064l-.222-.032zM53.29 15.097q-.19.413-.492.714l.445.445-.064.063-.444-.428q-.476.46-1.064.667v.523h-.095v-.492q-.206.064-.397.096-.175.031-.429.031-1.143 0-2-.825-.413-.445-.635-1.016l-.095.111v.841h-.095v-.746q-.667.683-1.54 1.08t-1.858.476q-.222.048-.27.063-.095.016-.285.016v.746h-.095v-.746q-1.128 0-1.953-.825-.826-.826-.826-1.953h-.746v-.095h.746q0-.73.35-1.334.365-.619.968-1l-1.254.413-.032-.095 2.747-.89v-.618h.095v.587l2.683-.889q.555-.254.857-.54.302-.285.413-.73v-.905q-.223-1.127-1.35-1.429l-.54-.015v.746h-.095v-.746q-.365 0-.698.063-.318.048-.667.19-.35.128-.556.366.27.143.477.317.46.492.46 1.111h.762v.096h-.762q0 .619-.476 1.111-.46.476-1.096.476v.746h-.095v-.746q-.635 0-1.111-.476t-.476-1.111h-.746v-.096h.746q0-.508.333-.936.286-.365.556-.635.285-.286.698-.572v-.19h.095v.127q.334-.222.73-.381.413-.175.89-.254h-2.191v-.095h3.127v-.747h.096v.747h1.889v-.747h.095v.747h1.143v.095H48.02v.174q1.286.35 2.016 1.08.54.54.746 1.302V6.35h.095v7.97q.096-.175.286-.318.207-.143.413-.143v-.603h.095v.603q.302 0 .54.238.238.238.238.556h.81v.095h-.81q0 .27-.206.508l.492.492q.301-.318.476-.683zm-5.365-9.35v-.143h-.683zm4.429 8.906q0-.27-.207-.477-.206-.206-.476-.206v.683zm-4.43-4.207v-.302q-.237.254-.523.476zm4.43 4.302h-.62l.445.444q.159-.206.175-.444zm-.778-.095v-.683q-.27 0-.476.19-.19.191-.223.493zm.524.603l-.429-.445v.62q.254 0 .429-.175zm-.524.174v-.682h-.699q.032.286.223.492.206.19.476.19zm-3.651-1.587v-3.286l-.873.286q-.334.19-.683.349-.175.08-.73.301v.175l.238.19-.064.064-.174-.127v.381q.635 0 1.11.492.477.492.477 1.143t-.476 1.16l-.159.126q.365-.222.715-.556.365-.333.619-.698zm-2.382-2.254v-.064l-.063.032zm1.588 2.222q0-.635-.46-1.08-.445-.46-1.032-.46v1.572h.587v.095h-.587v1.413q.333 0 .698-.206.064-.111.143-.302.08-.206.111-.38l.095.03-.063.223q-.032.111-.143.333.65-.444.65-1.238zm-1.588-1.635v-.46l-.174-.111q-.556.254-.905.666-.333.413-.429 1.064.143-.508.556-.826.429-.333.952-.333zm0 1.667v-1.572q-.571 0-1.047.445-.445.476-.445 1.095zm0 1.508v-1.413h-1.476q0 .508.429.969.476.444 1.047.444z" style="-inkscape-font-specification:'Rubino Serif Solid weight=101'"/><path d="M62.438 14.335h-.746q0 .635-.476 1.111-.286.27-.635.381h1.064v.096h-1.143v.698h1.143v.095h-1.143v.746h-.096v-.746h-1.889v.746h-.095v-.746H55.66v.746h-.096v-.746h-1.889v.746h-.095v-.746h-1.143v-.095h1.143v-.698h-1.143v-.096h1.064q-.35-.11-.635-.38-.477-.477-.477-1.112h-.746v-.095h.746q0-.651.477-1.111.46-.477 1.111-.477v-.746h.095v.746q.635 0 1.111.477.27.285.381.635V3.699q-.11.35-.38.635-.477.476-1.112.476v.746h-.095V4.81q-.635 0-1.111-.476-.477-.476-.477-1.111h-.746v-.096h.746q0-.508.318-.905.302-.412.794-.587h-1.064V1.54h1.143V.84h-1.143V.746h1.143V0h.095v.746h1.89V0h.095v.746h2.762V0h.095v.746h.746v.095h-.746v.699h.746v.095h-.746v12.129q.175-.493.572-.794.397-.318.92-.318v-.746h.096v.746q.635 0 1.111.477.476.476.476 1.11h.746zM55.564 3.127q0-.587-.46-1.032-.444-.46-1.032-.46v1.492zm-1.587 0V1.635l-.302.048v.698h-.095v-.667q-.35.096-.65.366-.445.476-.445 1.047zm1.587.096h-1.492v1.492q.603 0 1.048-.445.444-.444.444-1.047zm-1.587 1.492V3.223h-1.492q0 .571.444 1.047.476.445 1.048.445zm7.62 9.525q0-.588-.46-1.032-.445-.46-1.032-.46v1.492zm-1.588 0v-1.492q-.571 0-1.047.444-.445.476-.445 1.048zm1.588.095h-1.492v1.492l.301-.047v-.699h.096v.667q.46-.127.777-.524.318-.397.318-.889zm-1.588 1.492v-1.492h-1.492q0 .572.445 1.048.476.444 1.047.444zm-4.445-1.587q0-.588-.46-1.032-.444-.46-1.032-.46v1.492zm-1.587 0v-1.492q-.572 0-1.048.444-.444.476-.444 1.048zm1.587.095h-1.492v1.492q.603 0 1.048-.444.444-.445.444-1.048zm-1.587 1.492v-1.492h-1.492q0 .572.444 1.048.302.27.651.365v-.667h.095v.699z" style="-inkscape-font-specification:'Rubino Serif Solid weight=101'"/><path d="M83.73 14.335h-.745q0 .635-.477 1.111-.285.27-.635.381h1.064v.096h-1.143v.698h1.143v.095h-1.143v.746h-.095v-.746h-1.89v.746h-.095v-.746h-2.762v.746h-.095v-.746h-1.492v.746h-.096v-.746h-.698v.746h-.095v-.746h-1.493v.746h-.095v-.746h-2.762v.746h-.095v-.746h-1.493v.746h-.095v-.746h-.698v.746h-.096v-.746h-1.492v.746h-.095v-.746H63.3v.746h-.096v-.746h-1.889v.746h-.095v-.746h-1.143v-.095h1.143v-.698h-1.143v-.096h1.064q-.35-.11-.635-.38-.477-.477-.477-1.112h-.746v-.095h.746q0-.651.477-1.111.46-.477 1.11-.477v-.746h.096v.746q.635 0 1.111.477.27.285.381.635V8.46q-.11.35-.38.635-.477.477-1.112.477v.746h-.095v-.746q-.635 0-1.111-.477-.477-.476-.477-1.11h-.746V7.89h.746q0-.508.318-.905.301-.413.794-.587h-1.064v-.096h1.143v-.698h-1.143v-.095h1.143v-.747h.095v.747h1.89v-.747h.095v.747h2.762v-.747h.095v.747h.746v.095h-.746v.698h.746v.096h-.746V7.62q.222-.365.54-.714.317-.366.635-.62l.047-.031q.445-.35.969-.54.54-.206 1.127-.206v-.747h.095v.747q1.365 0 2.413 1.016.572.587.81 1.333l.095-.143V6.35h.095v1.222q.572-.873 1.318-1.38.429-.318.952-.493.524-.19 1.048-.19v-.747h.095v.747q1.366 0 2.413 1.016.667.682.905 1.603V6.35h.096v2.318l.015.27h.73v.095h-.73l-.015.159v4.572q.174-.493.571-.794.397-.318.92-.318v-.746h.096v.746q.635 0 1.111.477.477.476.477 1.11h.746zm-.84-.095q0-.588-.461-1.032-.445-.46-1.032-.46v1.492zm-6.033-5.302q0-.588-.46-1.048v1.048zm-.556 0V7.81q-.444-.365-.936-.365v1.493zm5 5.302v-1.492q-.57 0-1.047.444-.444.476-.444 1.048zm1.588.095h-1.492v1.492l.302-.047v-.699h.095v.667q.46-.127.778-.524.317-.397.317-.889zm-7.62-5.397V7.445q-.571 0-1.047.445-.445.476-.445 1.048zm1.588.095h-.46v.524H76.3v-.524h-.936v1.492q.603 0 1.047-.444.445-.445.445-1.048zM74.49 7.588q-.84.35-1.476 1.35h.667q0-.445.206-.778.222-.35.603-.572zm6.81 8.24v-1.493H79.81q0 .572.444 1.048.476.444 1.048.444zm-6.032-5.303V9.033h-1.492q0 .571.445 1.048.476.444 1.047.444zm1.588 3.239V9.509q-.111.35-.381.635-.476.476-1.111.476v2.032q.635 0 1.11.477.27.285.382.635zm0 .476q0-.588-.46-1.032-.445-.46-1.032-.46v1.492zm-1.588-1.588V10.62q-.635 0-1.11-.476-.477-.476-.477-1.111h-.683l-.016.047q0 .905.556 1.763l-.095.063q-.302-.508-.46-1.143v4.477h.698q0-.651.46-1.111.476-.477 1.127-.477zm-5.238-3.714q0-.588-.46-1.048v1.048zm5.238 5.302v-1.492q-.571 0-1.047.444-.445.476-.445 1.048zm1.588.095h-1.492v1.492q.603 0 1.047-.444.445-.445.445-1.048zm-7.382-5.397V7.81q-.445-.365-.937-.365v1.493zm-1.032 0V7.445q-.571 0-1.048.445-.444.476-.444 1.048zm1.588.095h-.46v.524h-.096v-.524h-.937v1.492q.604 0 1.048-.444.445-.445.445-1.048zm5.238 6.794v-1.492h-1.492q0 .572.445 1.048l.254.19v-.492h.095v.54q.333.206.698.206zm-.476 0l-.222-.095v.095zm-7.128-8.239q-.841.35-1.476 1.35h.667q0-.445.206-.778.222-.35.603-.572zm6.81 8.24v-.144l-.317-.238q-.476-.476-.476-1.11h-.699v.317q.238.936 1.175 1.174zm.794.793v-.698h-.698v.698zm-6.826-6.096V9.033h-1.492q0 .571.444 1.048.477.444 1.048.444zm1.588 3.239V9.509q-.112.35-.381.635-.477.476-1.112.476v2.032q.635 0 1.112.477.27.285.38.635zm0 .476q0-.588-.46-1.032-.445-.46-1.033-.46v1.492zm-1.588-1.588V10.62q-.635 0-1.111-.476t-.476-1.111h-.699q0 .936.508 1.73l-.095.064q-.286-.508-.413-1.064v4.477h.699q0-.651.46-1.111.476-.477 1.127-.477zM63.204 7.89q0-.588-.46-1.032-.445-.46-1.032-.46V7.89zm5.24 6.35v-1.492q-.572 0-1.049.444-.444.476-.444 1.048zm1.587.095h-1.493v1.492q.604 0 1.048-.444.445-.445.445-1.048zM61.617 7.89V6.398l-.302.047v.699h-.095v-.667q-.35.095-.65.365-.445.476-.445 1.048zm1.587.095h-1.492v1.492q.603 0 1.048-.444.444-.445.444-1.048zm5.24 7.842v-1.492H66.95q0 .572.444 1.048l.254.19v-.492h.096v.54q.333.206.698.206zm-6.827-6.35V7.985h-1.492q0 .572.444 1.048.476.444 1.048.444zm6.35 6.35l-.222-.095v.095zm-.318 0v-.143l-.317-.238q-.476-.476-.476-1.11h-.699v.317q.238.936 1.175 1.174zm.794.794v-.698h-.698v.698zm-5.239-2.381q0-.588-.46-1.032-.445-.46-1.032-.46v1.492zm-1.587 0v-1.492q-.572 0-1.048.444-.444.476-.444 1.048zm1.587.095h-1.492v1.492q.603 0 1.048-.444.444-.445.444-1.048zm-1.587 1.492v-1.492h-1.492q0 .572.444 1.048.302.27.651.365v-.667h.095v.699z" style="-inkscape-font-specification:'Rubino Serif Solid weight=101'"/><path d="M94.774 11.16h-.746q0 .175-.032.381-.016.206-.032.302l-.095-.032q.063-.254.063-.65H91.17q0 .412-.095.84l-.095-.031q.095-.413.095-.81h-2.54l3.429 3.43q.317-.176.619-.461l.063.063q-.301.27-.603.46l.302.318.476-.54.064.064-.477.54.54.54-.063.063-.54-.54q-1.62 1.62-3.874 1.62v.745h-.095v-.746q-2.27 0-3.921-1.635-1.635-1.65-1.635-3.92h-.746v-.096h.746l.016-.381q0-.953.46-1.905.413-.857 1.127-1.588l-.524-.54.064-.063.54.524q.777-.762 1.762-1.175 1-.428 2.111-.428v-.747h.095v.747q2.286 0 3.921 1.635 1.636 1.635 1.636 3.92h.746zM88.47 6.35v.825q.651-.238 1.381-.238-.254-.285-.603-.428-.349-.159-.778-.159zm2.62 3.905q0-.92-.286-1.794-.286-.873-.794-1.428h-.159q-.619 0-1.285.206.73.302 1.38.92.43.43.715.97.286.539.429 1.126zm-.111.016q-.254-1.19-1.112-2.048-.619-.619-1.397-.905v2.953zm-2.604-3.096V6.35q-.429 0-.794.159-.349.143-.635.428.762 0 1.43.238zm-.095.064q-.667-.206-1.286-.206h-.143q-.286.317-.492.698-.19.381-.333.92l.27.27q.73-1.158 1.984-1.682zm.095 3.032V7.318q-.762.27-1.413.905-.19.207-.333.381-.127.159-.254.397l1.27 1.27zm-.857 0l-1.19-1.19q-.334.555-.461 1.19zm4.365 4.366l-3.413-3.413v3.683q.35-.143.604-.302l.063.095-.571.286q.666.206 1.285.206 1.096 0 2.032-.555zM86.25 9l-.254-.254q-.08.302-.143.73-.064.429-.095.778.08-.365.174-.619.111-.254.318-.635zm2.127 5.906V11.16h-2.603q0 .778.301 1.524.318.73.89 1.318.285.27.666.524.381.254.746.38zM104.658 12.017l-.048.096-1.762-.842.27.207q.905.936.905 2.174 0 .604-.238 1.175-.222.556-.667 1-.603.604-1.429.794h1.477v.095h-3.413v.746h-.096v-.746H96.26v.746h-.095v-.746h-.699v.746h-.095v-.746h-.746v-.095h.746v-2.064q-.35-.444-.571-.92l.079-.032q.206.413.492.794v-1.46l-.08-.191h-.666v-.096h.635q-.111-.317-.159-.746h.095q.032.19.048.302.016.111.111.444l.016-.746h.095v.746h.699v-.746h.095v.746h.746v.096h-.746v1.492q.984 1.143 2.46 1.476-.555-.603-.73-1.38h-.666v-.096h.635l-.048-.588h.095l.048.588q.016-.635.476-1.111.476-.477 1.127-.477v-.095l-4.54-2.159.048-.095 1.38.667-.285-.239q-.889-.889-.889-2.159 0-1.063.65-1.889.652-.825 1.668-1.08h-1.223V5.51h3.191v-.747h.096v.747h2.794v-.747h.095v.747h.698v-.747h.096v.747h.746v.095h-.746v1.984q.127.222.254.476t.206.524l-.08.032q-.063-.175-.174-.397-.095-.238-.206-.444V9h.746v.095h-.746v.746h-.096v-.746h-.698v.746h-.095v-.746h-.747v-.095h.747V7.858q-.73-.984-1.842-1.318l.333.46.19.35q.049.127.08.238.048.111.08.302h.698v.095h-.667l.032.27q.032.127.032.317h-.095q0-.142-.032-.301-.016-.175-.032-.254 0 .603-.46 1.08-.46.476-1.111.476v.11zm-2.111-5.445v-.968h-1.985q1 .206 1.762.778zm-1.953 0l-.048-.063-.11-.016zm.635 1.318q0-.254-.095-.492l-.175-.35-.175-.206q-.476-.444-1.031-.444V7.89zm-1.572 0V6.398q-.571 0-1.032.444-.46.445-.46 1.048zm1.572.095h-1.476v1.492q.603 0 1.031-.428.445-.445.445-1.064zM98.64 5.62q-.778.095-1.35.301-.555.19-.983.556.905-.873 2.127-.873zm1.016 3.857V7.985h-1.492q0 .397.222.746.111.159.223.27.127.111.333.27.333.206.714.206zm0 .16v-.064l-.206-.016zm.238 3.031l-.142-.063zm1.334 1.572q0-.603-.46-1.048-.46-.444-1.016-.444v1.492zm-4.382-3.16l-.38-.285zm6.271 4.589q-.825.746-2.365.936l.222.016q.619 0 1.159-.238.555-.254.984-.714zm-3.46-1.43v-1.491q-.572 0-1.033.444-.46.445-.46 1.048zm1.57.096h-1.475v1.492q.603 0 1.031-.428.445-.445.445-1.064zm-1.57 1.492v-1.492h-1.493q0 .603.46 1.048.46.444 1.032.444zm-.636-.047l-.254-.159.096.127zm-.285.841q-1.413-.238-2.477-1.143v1.143z" style="-inkscape-font-specification:'Rubino Serif Solid weight=101'"/><path d="M120.71 14.335h-.747q0 .635-.476 1.111-.254.254-.619.381h1.048v.096h-1.143v.698h1.143v.095h-1.143v.746h-.095v-.746h-1.89v.746h-.095v-.746h-2.762v.746h-.095v-.746h-1.493v.746h-.095v-.746h-.698v.746h-.096v-.746h-1.492v.746h-.095v-.746h-2.762v.746h-.096v-.746h-1.889v.746h-.095v-.746h-1.143v-.095h1.143v-.698h-1.143v-.096h1.064q-.365-.127-.62-.38-.476-.477-.476-1.112h-.762v-.095h.762q0-.635.46-1.111.461-.477 1.112-.477v-.746h.095v.746q.635 0 1.111.477.254.254.381.635V3.699q-.127.38-.38.635-.477.476-1.112.476v.746h-.095V4.81q-.62 0-1.095-.476-.477-.476-.477-1.111h-.762v-.096h.762q0-.508.318-.905.301-.412.778-.587h-1.064V1.54h1.143V.84h-1.143V.746h1.143V0h.095v.746h1.89V0h.095v.746h2.762V0h.095v.746h.746v.095h-.746v.699h.746v.095h-.746V7.62q.556-.92 1.35-1.445.428-.317.92-.492.492-.174 1.048-.174v-.747h.095v.747q1.397 0 2.413 1.016.683.682.905 1.603V6.35h.095v2.318l.016.27h.746v.095h-.746l-.016.127v4.604q.175-.493.572-.794.413-.318.92-.318v-.746h.096v.746q.635 0 1.111.477.476.476.476 1.11h.747zm-.842-.095q0-.603-.46-1.048-.46-.444-1.032-.444v1.492zm-6.032-5.302q0-.604-.445-1.048l-.016 1.048zm-.556 0V7.81q-.413-.365-.937-.365v1.493zm5 5.302v-1.492q-.301 0-.555.11-.238.096-.476.334-.445.445-.445 1.048zm1.588.095h-1.492v1.492l.302-.047v-.699h.095v.667q.46-.127.778-.524.317-.397.317-.889zM107.01 3.127q0-.603-.46-1.047-.46-.445-1.032-.445v1.492zm5.24 5.81V7.446q-.302 0-.556.111-.239.096-.477.334-.444.444-.444 1.048zm1.587.096h-.46v.524h-.096v-.524h-.937v1.492q.604 0 1.048-.444.445-.445.445-1.048zm-2.35-1.46q-.841.364-1.476 1.365h.667q0-.429.206-.778.222-.365.603-.588zm6.795 8.254v-1.492h-1.477q0 .603.46 1.048.461.444 1.017.444zm-12.86-12.7V1.635l-.3.048v.698h-.096v-.667q-.365.096-.635.366-.444.444-.444 1.047zm1.588.096h-1.492v1.492q.603 0 1.048-.445.444-.444.444-1.047zm5.24 7.302V9.033h-1.477q0 .603.46 1.048.46.444 1.016.444zm1.587 3.239V9.509q-.127.381-.381.635-.477.476-1.112.476v2.032q.635 0 1.112.477.254.254.38.635zm-8.414-9.05V3.224h-1.476q0 .603.46 1.047.46.445 1.016.445zm8.414 9.526q0-.603-.46-1.048-.461-.444-1.033-.444v1.492zm-1.588-1.588V10.62q-.619 0-1.095-.476t-.476-1.111h-.699q0 1.032.62 1.905l-.08.063q-.381-.524-.556-1.254v4.493h.715q0-.635.46-1.111.46-.477 1.111-.477zm0 1.588v-1.492q-.301 0-.555.11-.239.096-.477.334-.444.445-.444 1.048zm1.588.095h-1.493v1.492q.604 0 1.048-.444.445-.445.445-1.048zm-1.588 1.492v-1.492h-1.476q0 .603.444 1.048l.238.19v-.492h.096v.54q.365.206.698.206zm-.476 0l-.222-.095v.095zm-.318 0v-.143l-.301-.238q-.476-.476-.476-1.11h-.715v.317q.238.936 1.175 1.174zm.794.794v-.698h-.698v.698zm-5.239-2.381q0-.603-.46-1.048-.46-.444-1.032-.444v1.492zm-1.587 0v-1.492q-.302 0-.556.11-.238.096-.476.334-.444.445-.444 1.048zm1.587.095h-1.492v1.492q.603 0 1.048-.444.444-.445.444-1.048zm-1.587 1.492v-1.492h-1.476q0 .603.444 1.048.27.27.635.365v-.667h.095v.699z" style="-inkscape-font-specification:'Rubino Serif Solid weight=101'"/></g></g></svg>