<svg xmlns="http://www.w3.org/2000/svg" viewBox="0 0 100 100"><style>path{fill:#c8c5bd;stroke:navy;stroke-width:.5;stroke-linejoin:bevel}</style><path d="M64.287 65.099l-4.563 5.959 5.555.599zM24.693 88.469L27 93.647l3.141-6.21zM5.547 64.849l7.326.839-5.593-7.297zM25.985 54.48l-6.421.746 6.601 5.059zM46.706 80.079l-9.182-4.991 2.279 6.556zM37.524 75.088l-5.699-3.617.771 9.501zM16.685 21.759l-5.633 3.182 5.821 3.385zM24.756 5.59L18.75 0l.058 6.28zM39.803 81.644l-2.279-6.556-4.928 5.884zM66.458 78.507l4.277-6.167-5.456-.683zM67.126 54.195l2.314 5.297 4.954-5.255zM68.001 44.918l-6.711-2.972 2.812 7.136zM18.575 41.484l-5.347 4.63 6.993 2.149zM100 37.5l-6.522-1.813.406 7.575zM80.347 50.398l7.088 3.099-.494-6.372zM80.347 50.398l.816-5.641-6.216 2.592zM100 56.25l-6.089-6.003-.468 7.418zM52.019 54.968l-5.279 3.905 6.231 2.369zM31.961 21.075l-6.081-4.608-2.421 5.409zM49.703 66.16l3.217 7.943 1.936-5.841zM53.241 95.348l-2.779-7.208-3.446 6.338zM93.785 14.593l-.948 7.115L100 18.75zM56.194 18.915l-2.806-6.01-2.913 5.641zM28.075 76.862l-2.706-5.033-4.402 4.258zM68.308 30.75l-1.48 5.576 7.611-.098zM41.497 24.971l-3.006-5.622-2.308 7.781zM56.25 100l-3.009-4.652L50 100zM76.088 9.964l5.471 3.153 1.147-6.574zM32.631 14.605l5.86 4.744.86-7.171zM87.157 68.652l-5.859-2.717 1.035 6.798zM69.778 85.723l7.698.57-2.767-8.191z"/><path d="M42.436 88.397l4.58 6.081 3.446-6.338zM64.26 92.362l-5.203 3.375L62.5 100zM68.308 30.75l6.131 5.478-.623-5.569zM32.555 58.778l1.848 6.92 4.794-5.352zM81.184 60.749l-5.511.495 5.625 4.691zM49.703 66.16l-2.963-7.287-3.229 5.624zM70.779 40.805l3.66-4.577-7.611.098zM74.394 54.237l1.279 7.007 5.562-5.382z"/><path d="M43.511 64.497l3.229-5.624-7.543 1.473zM61.29 41.946l-7.562 1.801 3.454 6.238zM4.934 25.633L0 18.75V25zM51.503 6.173l-4.381 5.705 6.266 1.027zM59.163 35.202l-.771-7.706-4.364 4.197zM0 93.75L6.25 100l1.754-8.073zM68.222 20.292l-3.301 5.752 5.502-.509zM68.001 44.918l6.946 2.431-4.168-6.544zM27 93.647L31.25 100l3.403-6.941zM15.163 93.942l6.432 1.649-1.6-4.718zM86.788 32.336l1.242 8.268 5.448-4.917zM88.03 40.604l-6.867 4.153 5.778 2.368zM81.25 0l1.456 6.543L87.5 0zM65.854 6.61L62.5 0l-3.289 7.181zM23.459 21.876l-.112 7.213 6.289.175zM13.828 79.846l-5.229 1.108 5.167 5.222zM15.246 16.145L7.38 18.49l9.305 3.269zM73.751 16.411l7.808-3.294-5.471-3.153zM18.575 41.484l1.646 6.779 4.627-5.894zM74.947 47.349l1.307-5.186-5.475-1.358z"/><path d="M27 93.647l-2.307-5.178-4.698 2.404zM15.246 16.145L7.704 9.538 7.38 18.49zM32.631 14.605l-.67 6.47 6.53-1.726zM85.121 84.915l6.09 6.4 1.977-9.902zM8.599 80.954l-2.93 4.367 8.097.855zM25.985 54.48l6.57 4.298 1.757-8.223zM13.228 46.114l-6.726-1.903.03 6.76zM68.001 44.918l2.778-4.113-3.951-4.479zM81.361 93.225l-3.885-6.932-4.818 6.693zM18.808 6.28l-5.617-1.458 1.392 5.638zM81.361 93.225l-8.703-.239L75 100zM100 62.5l-6.557-4.835-.148 7.352zM43.75 0l-5.665 5.388 6.435.662zM50.475 18.546l2.913-5.641-6.266-1.027zM36.183 27.13l-6.547 2.134 6.647 5.28zM65.854 6.61l4.522 4.026 1.524-5.58zM59.211 7.181l.883 6.407 5.76-6.978zM43.511 64.497l1.796 7.457 4.396-5.794zM12.677 39.397l.551 6.717 5.347-4.63zM41.943 38.061l5.546 4.552.628-6.475zM47.489 42.613l1.701 6.281 4.538-5.147z"/><path d="M36.283 34.544l-6.647-5.28.436 7.799zM53.218 24.533l-2.743-5.987-3.646 4.649zM37.5 0h-6.25l6.835 5.388zM12.5 0H6.25l6.941 4.822zM0 6.25v6.25l7.704-2.962zM15.163 93.942l-1.397-7.766-5.762 5.751zM6.471 70.519l6.961 3.278-.559-8.109zM15.246 16.145l5.806-4.059-6.469-1.626zM54.856 68.262l-1.936 5.841 6.804-3.045zM81.361 93.225l3.76-8.31-7.645 1.378zM81.235 55.862l5.71 5.298.49-7.663zM87.157 68.652l-.212-7.492-5.647 4.775zM67.126 54.195l-3.024-5.113-2.512 4.969zM7.38 18.49l-2.446 7.143 6.118-.692zM91.211 91.315L87.5 100h6.25zM56.715 90.868l-6.253-2.728 2.779 7.208z"/><path d="M8.599 80.954l4.833-7.157-7.286 2.693zM21.595 95.591L25 100l2-6.353zM13.432 73.797l7.535 2.29-1.055-7.137zM59.057 95.737L56.25 100h6.25zM20.472 61.619l-6.268-2.788-1.331 6.857z"/><path d="M19.912 68.95l.56-7.331-7.599 4.069zM86.945 61.16l-5.761-.411.114 5.186zM93.75 0l-5.598 4.922 5.912 2.491zM76.254 42.163l5.454-3.18-7.269-2.755zM40.756 94.317L43.75 100l3.266-5.522zM19.768 85.837l.227 5.036 4.698-2.404zM39.423 68.935l-.226-8.589-4.794 5.352zM5.547 64.849L0 62.5v6.25zM39.722 54.48l5.642-.658-3.314-5.511zM93.214 28.66L100 25l-7.163-3.292zM88.03 40.604l-1.089 6.521 6.943-3.863zM42.05 48.311l5.439-5.698-5.315.688zM65.279 71.657l5.313-5.842-6.305-.716zM72.658 92.986l-8.398-.624L68.75 100zM42.204 31.462l-.261 6.599 6.174-1.923zM43.75 0l.77 6.05L50 0zM92.942 72.468L100 68.75l-6.705-3.733zM62.343 84.823l1.917 7.539 5.518-6.639zM76.376 69.374l-1.667 8.728 7.624-5.369zM54.15 81.335l5.793-3.147-7.023-4.085zM22.011 35.737l-3.436 5.747 6.273.885zM7.28 58.391l6.166-5.981-6.914-1.439zM74.709 78.102l2.767 8.191 3.299-6.842zM66.458 78.507l-1.179-6.85-5.336 6.531zM77.523 4.834L75 0l-3.1 5.056zM58.392 27.496l6.529-1.452-3.464-4.933zM59.211 7.181l-5.823 5.724 6.706.683zM50 0l1.503 6.173L56.25 0zM0 56.25l6.532-5.279L0 50zM36.283 34.544l-6.211 2.519 6.699 5.679z"/><path d="M13.432 73.797l6.48-4.847-7.039-3.262zM30.072 37.063l-.436-7.799-7.625 6.473zM76.254 42.163l-1.815-5.935-3.66 4.577zM93.884 43.262l6.116.488V37.5z"/><path d="M16.873 28.326l5.138 7.411 1.336-6.648zM70.347 49.996l-2.346-5.078-3.899 4.164zM23.459 21.876l2.421-5.409-4.828-4.381zM18.575 41.484l-3.23-7.659-2.668 5.572zM80.753 19.891l5.406 4.814.926-7.259zM13.446 52.41l-.218-6.296-6.696 4.857zM65.854 6.61l-5.76 6.978 5.525.57z"/><path d="M65.619 14.158l8.132 2.253-3.375-5.775zM76.254 42.163l-1.307 5.186 6.216-2.592zM57.49 57.85l5.702 1.359-1.602-5.158zM42.05 48.311l-5.279-5.569-2.459 7.813zM68.308 30.75l5.508-.091-3.393-5.124zM72.658 92.986l-2.88-7.263-5.518 6.639zM30.141 87.437l6.192-.522-3.737-5.943zM25.193 82.57l-5.425 3.267 4.925 2.632zM56.715 90.868l.634-4.87-6.887 2.142zM26.165 60.285l-5.693 1.334 6.616 4.522zM27.413 48.271l-2.565-5.902-4.627 5.894zM34.312 50.555l5.41 3.925 2.328-6.169zM68.222 20.292l5.529-3.881-8.132-2.253zM42.204 31.462l5.946-2.347-6.653-4.144zM44.52 6.05l-5.169 6.128 7.771-.3zM100 18.75l-7.163 2.958L100 25zM13.432 73.797l.396 6.049 7.139-3.759zM32.631 14.605l-5.359-3.507-1.392 5.369zM13.432 73.797l-4.833 7.157 5.229-1.108zM0 75l6.471-4.481L0 68.75zM15.163 93.942l-7.159-2.015L12.5 100zM0 25v6.25l4.934-5.617zM53.728 43.747l7.562-1.801-7.433-4.005zM25.985 54.48l1.428-6.209-7.192-.008zM74.394 54.237l-4.954 5.255 6.233 1.752zM42.436 88.397l-2.633-6.753-3.47 5.271z"/><path d="M65.619 14.158l-5.525-.57 1.363 7.523zM0 81.25l5.669 4.071 2.93-4.367zM31.825 71.471l-6.456.358 2.706 5.033zM39.423 68.935l-7.598 2.536 5.699 3.617zM50 100l-2.984-5.522L43.75 100zM44.403 17.642l6.072.904-3.353-6.668zM64.921 26.044l3.387 4.706 2.115-5.215zM93.478 35.687l-.264-7.027-6.426 3.676z"/><path d="M93.478 35.687L100 31.25l-6.786-2.59zM87.085 17.446l5.752 4.262.948-7.115zM52.019 54.968l-6.655-1.146 1.376 5.051zM19.564 55.226l-6.118-2.816.758 6.421zM71.9 5.056L75 0h-6.25zM46.829 23.195l-5.332 1.776 6.653 4.144zM81.559 13.117l-7.808 3.294 7.002 3.48zM81.708 38.983l-.545 5.774 6.867-4.153zM27.088 66.141l-7.176 2.809 5.457 2.879zM32.555 58.778l-6.39 1.507.923 5.856zM81.235 55.862l-.051 4.887 5.761.411zM57.349 85.998l4.994-1.175-2.4-6.635zM81.559 13.117l6.535-2.044-5.388-4.53zM88.152 4.922L93.75 0H87.5zM28.075 76.862l-2.882 5.708 7.403-1.598zM12.873 65.688l-7.326-.839.924 5.67zM32.631 14.605l-6.751 1.862 6.081 4.608zM61.457 21.111l-1.363-7.523-3.9 5.327z"/><path d="M81.163 44.757l.545-5.774-5.454 3.18zM46.829 23.195l-2.426-5.553-2.906 7.329zM88.03 40.604l-1.242-8.268-5.08 6.647zM12.873 65.688l1.331-6.857-6.924-.44zM6.532 50.971l-.03-6.76L0 50zM64.921 26.044l3.301-5.752-6.765.819zM88.094 11.073l-1.009 6.373 6.7-2.853zM4.934 25.633L0 31.25l8.637.291zM31.198 43.496l-1.126-6.433-5.224 5.306zM68.75 100H75l-2.342-7.014zM82.333 72.733l-1.558 6.718 6.234-2.538zM50.462 88.14l-3.756-8.061-4.27 8.318zM54.15 81.335l-1.23-7.232-6.214 5.976zM56.194 18.915l-2.976 5.618 5.174 2.963zM73.816 30.659L75 22.961l-4.577 2.574zM47.489 42.613l6.368-4.672-5.74-1.803z"/><path d="M86.788 32.336l-6.727.757 1.647 5.89zM0 87.5l8.004 4.427-2.335-6.606z"/><path d="M0 87.5l5.669-2.179L0 81.25zM18.77 80.61l6.423 1.96-4.226-6.483zM59.163 35.202l-5.306 2.739 7.433 4.005zM39.351 12.178l-.86 7.171 5.912-1.707zM36.771 42.742l5.403.559-.231-5.24zM49.703 66.16l5.153 2.102-1.885-7.02zM19.995 90.873l1.6 4.718L27 93.647zM57.182 49.985l-5.163 4.983 5.471 2.882zM52.019 54.968l.952 6.274 4.519-3.392zM66.458 78.507l3.32 7.216 4.931-7.621zM31.825 71.471l-3.75 5.391 4.521 4.11z"/><path d="M57.815 64.025l-.325-6.175-4.519 3.392zM74.394 54.237l5.953-3.839-5.4-3.049zM59.163 35.202l-5.135-3.509-.171 6.248zM70.423 25.535L75 22.961l-6.778-2.669zM100 6.25l-5.936 1.163L100 12.5zM100 6.25V0h-6.25zM42.05 48.311l.124-5.01-5.403-.559zM76.376 69.374l5.957 3.359-1.035-6.798zM43.511 64.497l-4.314-4.151.226 8.589zM20.967 76.087l4.226 6.483 2.882-5.708zM59.057 95.737l5.203-3.375-7.545-1.494zM63.192 59.209l6.248.283-2.314-5.297zM36.283 34.544l5.921-3.082-6.021-4.332zM46.706 80.079l3.756 8.061 3.688-6.805zM18.77 80.61l-5.004 5.566 6.002-.339zM37.5 100l-2.847-6.941L31.25 100zM34.653 93.059l1.68-6.144-6.192.522z"/><path d="M36.333 86.915l3.47-5.271-7.207-.672zM54.028 31.693l4.364-4.197-5.174-2.963zM93.214 28.66L100 31.25V25zM19.912 68.95l7.176-2.809-6.616-4.522zM14.204 58.831l-.758-6.421-6.166 5.981zM44.52 6.05l6.983.123L50 0zM51.503 6.173l1.885 6.732 5.823-5.724zM52.92 74.103l-7.613-2.149 1.399 8.125zM92.942 72.468l.353-7.451-6.138 3.635zM75 22.961l-1.249-6.55-5.529 3.881zM70.592 65.815l.143 6.525 5.641-2.966zM100 87.5l-8.789 3.815L100 93.75zM56.715 90.868l-3.474 4.48 5.816.389zM52.019 54.968l5.163-4.983-7.992-1.091z"/><path d="M87.009 76.913l.148-8.261-4.824 4.081zM79.521 26.977l7.267 5.359-.629-7.631zM65.279 71.657l-5.555-.599.219 7.13zM42.436 88.397l-1.68 5.92 6.26.161zM71.9 5.056l4.188 4.908 1.435-5.13zM13.228 46.114l-.551-6.717-6.175 4.814zM87.435 53.497l-.49 7.663 6.498-3.495z"/><path d="M80.775 79.451l1.558-6.718-7.624 5.369zM81.25 100l.111-6.775L75 100zM93.188 81.413l-.246-8.945-5.933 4.445zM81.361 93.225l9.85-1.91-6.09-6.4zM93.75 100H100v-6.25zM0 6.25l7.704 3.288L6.25 0z"/><path d="M0 0v6.25L6.25 0zM23.459 21.876l-2.407-9.79-5.806 4.059zM4.934 25.633l3.703 5.908 2.415-6.6zM49.19 48.894l-3.826 4.928 6.655 1.146zM57.815 64.025l-4.844-2.783 1.885 7.02zM57.815 64.025l1.909 7.033 4.563-5.959zM12.5 100l-4.496-8.073L6.25 100zM53.241 95.348l-6.225-.87L50 100zM34.312 50.555l-3.114-7.059-3.785 4.775zM6.146 76.49l7.286-2.693-6.961-3.278zM25.369 71.829l-5.457-2.879 1.055 7.137zM59.057 95.737l-5.816-.389L56.25 100zM39.197 60.346l7.543-1.473-7.018-4.393zM79.521 26.977l1.232-7.086L75 22.961zM64.102 49.082l-2.812-7.136-4.108 8.039zM26.165 60.285l6.39-1.507-6.57-4.298zM0 100h6.25L0 93.75zM26.165 60.285l-6.601-5.059.908 6.393zM45.307 71.954l-7.783 3.134 9.182 4.991zM53.728 43.747l.129-5.806-6.368 4.672zM37.5 0l.585 5.388L43.75 0zM59.943 78.188l2.4 6.635 4.115-6.316z"/><path d="M49.19 48.894l-7.14-.583 3.314 5.511zM32.596 80.972l-7.403 1.598 4.948 4.867zM67.126 54.195l3.221-4.199-6.245-.914z"/><path d="M39.722 54.48l7.018 4.393-1.376-5.051zM39.197 60.346l.525-5.866-7.167 4.298zM5.547 64.849L0 68.75l6.471 1.769zM15.345 33.825l3.23 7.659 3.436-5.747zM31.25 0l-6.494 5.59 7.145 1.542zM29.636 29.264l2.325-8.189-8.502.801zM31.198 43.496l-6.35-1.127 2.565 5.902zM56.25 0l-4.747 6.173 7.708 1.008zM13.191 4.822L18.75 0H12.5zM62.706 31.156l4.122 5.17 1.48-5.576zM50.475 18.546l-6.072-.904 2.426 5.553zM100 50l-6.089.247L100 56.25zM61.457 21.111l6.765-.819-2.603-6.134zM100 37.5v-6.25l-6.522 4.437zM31.901 7.132L24.756 5.59l2.516 5.508zM31.901 7.132l.73 7.473 6.72-2.427zM25 0h-6.25l6.006 5.59zM14.583 10.46l-6.879-.922 7.542 6.607zM93.911 50.247L100 43.75l-6.116-.488z"/><path d="M100 50v-6.25l-6.089 6.497zM13.191 4.822L7.704 9.538l6.879.922zM23.347 29.089l.112-7.213-6.586 6.45zM76.376 69.374l-.703-8.13-5.081 4.571zM66.458 78.507l8.251-.405-3.974-5.762zM87.435 53.497l6.008 4.168.468-7.418zM93.188 81.413l-1.977 9.902L100 87.5zM81.25 100h6.25l-6.139-6.775zM93.295 65.017L100 68.75V62.5zM80.775 79.451l4.346 5.464 1.888-8.002z"/><path d="M100 75l-7.058-2.532.246 8.945zM39.423 68.935l-5.02-3.237-2.578 5.773zM25.985 54.48l-5.764-6.217-.657 6.963zM27.088 66.141l-1.719 5.688 6.456-.358zM62.343 84.823l7.435.9-3.32-7.216zM19.995 90.873l-6.229-4.697 1.397 7.766zM18.77 80.61l-4.942-.764-.062 6.33zM24.848 42.369l5.224-5.306-8.061-1.326zM5.72 37.533L0 43.75l6.502.461zM8.599 80.954L6.146 76.49 0 81.25zM15.246 16.145l1.439 5.614 6.774.117zM16.685 21.759L7.38 18.49l3.672 6.451z"/><path d="M0 43.75l5.72-6.217L0 37.5zM48.117 36.138l5.74 1.803.171-6.248zM75 22.961l-1.184 7.698 5.705-3.682zM64.921 26.044l-2.215 5.112 5.602-.406zM100 12.5l-5.936-5.087-.279 7.18zM38.085 5.388l-6.184 1.744 7.45 5.046z"/><path d="M0 37.5l5.72.033L0 31.25zM65.854 6.61L68.75 0H62.5zM80.061 33.093l-6.245-2.434.623 5.569zM88.03 40.604l5.854 2.658-.406-7.575zM36.183 27.13l2.308-7.781-6.53 1.726zM13.191 4.822L6.25 0l1.454 9.538zM56.194 18.915l-5.719-.369 2.743 5.987zM46.706 80.079l-6.903 1.565 2.633 6.753zM6.502 44.211l6.175-4.814-6.957-1.864zM62.706 31.156l-4.314-3.66.771 7.706zM12.677 39.397l-4.04-7.856-2.917 5.992zM70.592 65.815l-5.313 5.842 5.456.683zM23.347 29.089l-1.336 6.648 7.625-6.473zM18.75 100H25l-3.405-4.409zM47.489 42.613l-5.439 5.698 7.14.583zM6.146 76.49l.325-5.971L0 75zM8.004 91.927L0 87.5v6.25zM79.521 26.977l-5.705 3.682 6.245 2.434zM93.785 14.593L100 18.75V12.5zM36.183 27.13l6.021 4.332-.707-6.491zM25.88 16.467l1.392-5.369-6.22.988zM63.192 59.209l3.934-5.014-5.536-.144zM64.26 92.362L62.5 100h6.25zM74.947 47.349l-6.946-2.431 2.346 5.078zM48.15 29.115l-.033 7.023 5.911-4.445zM71.9 5.056L68.75 0l-2.896 6.61zM87.5 0l-4.794 6.543 5.446-1.621zM34.403 65.698l-7.315.443 4.737 5.33zM20.221 48.263l-6.993-2.149.218 6.296zM81.361 93.225L87.5 100l3.711-8.685zM100 68.75l-7.058 3.718L100 75zM53.728 43.747l-4.538 5.147 7.992 1.091zM56.715 90.868l5.628-6.045-4.994 1.175zM80.347 50.398l6.594-3.273-5.778-2.368zM36.283 34.544l5.66 3.517.261-6.599zM70.592 65.815l5.081-4.571-6.233-1.752zM91.211 91.315L93.75 100l6.25-6.25zM100 81.25V75l-6.812 6.413zM93.188 81.413L100 87.5v-6.25zM6.502 44.211L0 43.75V50zM70.376 10.636l5.712-.672L71.9 5.056zM14.583 10.46l6.469 1.626-2.244-5.806zM24.756 5.59L31.25 0H25zM93.443 57.665L100 62.5v-6.25zM93.295 65.017l.148-7.352-6.498 3.495zM38.085 5.388L31.25 0l.651 7.132z"/><path d="M88.152 4.922l-.058 6.151 5.97-3.66zM32.631 14.605l-.73-7.473-4.629 3.966zM16.685 21.759l.188 6.567 6.586-6.45zM60.094 13.588l-6.706-.683 2.806 6.01zM24.756 5.59l-5.948.69 2.244 5.806zM42.174 43.301l5.315-.688-5.546-4.552zM4.934 25.633L7.38 18.49 0 18.75zM32.555 58.778l-5.467 7.363 7.315-.443zM50.462 88.14l6.887-2.142-3.199-4.663zM64.287 65.099l6.305.716-1.152-6.323zM54.856 68.262l4.868 2.796-1.909-7.033zM80.753 19.891l6.332-2.445-5.526-4.329zM59.163 35.202l7.665 1.124-4.122-5.17zM64.102 49.082l-6.92.903 4.408 4.066zM87.085 17.446l-.926 7.259 6.678-2.997zM44.52 6.05l2.602 5.828 4.381-5.705zM92.837 21.708l-6.678 2.997 7.055 3.955zM94.064 7.413l-5.97 3.66 5.691 3.52z"/><path d="M86.159 24.705l.629 7.631 6.426-3.676zM77.523 4.834L81.25 0H75zM38.491 19.349l3.006 5.622 2.906-7.329zM20.472 61.619l-.908-6.393-5.36 3.605zM32.555 58.778l7.167-4.298-5.41-3.925zM75.673 61.244l.703 8.13 4.922-3.439zM52.92 74.103l-3.217-7.943-4.396 5.794zM93.295 65.017l-6.35-3.857.212 7.492zM52.92 74.103l7.023 4.085-.219-7.13zM93.75 0l.314 7.413L100 6.25zM53.218 24.533l-6.389-1.338 1.321 5.92zM66.828 36.326l-5.538 5.62 6.711 2.972zM80.753 19.891l-7.002-3.48L75 22.961zM36.771 42.742l5.172-4.681-5.66-3.517z"/><path d="M48.15 29.115l-5.946 2.347 5.913 4.676zM24.756 5.59l-3.704 6.496 6.22-.988zM6.532 50.971L0 56.25l7.28 2.141zM62.343 84.823l-5.628 6.045 7.545 1.494zM81.559 13.117l5.526 4.329 1.009-6.373zM72.658 92.986l4.818-6.693-7.698-.57zM66.828 36.326l-7.665-1.124 2.127 6.744zM48.15 29.115l5.878 2.578-.81-7.16zM81.235 55.862l-5.562 5.382 5.511-.495zM81.25 0l-3.727 4.834 5.183 1.709zM19.564 55.226l.657-6.963-6.775 4.147zM5.72 37.533l2.917-5.992L0 31.25zM57.815 64.025l5.377-4.816-5.702-1.359zM81.235 55.862l6.2-2.365-7.088-3.099z"/><path d="M7.28 58.391L0 56.25v6.25zM93.911 50.247l-.027-6.985-6.943 3.863zM88.152 4.922l-5.446 1.621 5.388 4.53zM56.25 0l2.961 7.181L62.5 0zM77.523 4.834l-1.435 5.13 6.618-3.421zM70.735 72.34l3.974 5.762 1.667-8.728zM18.75 0l-5.559 4.822 5.617 1.458zM45.307 71.954l-5.884-3.019-1.899 6.153zM49.703 66.16l3.268-4.918-6.231-2.369zM47.122 11.878l-7.771.3 5.052 5.464zM36.183 27.13l-4.222-6.055-2.325 8.189zM58.392 27.496l3.065-6.385-5.263-2.196zM36.333 86.915l4.423 7.402 1.68-5.92zM34.312 50.555l-6.899-2.284-1.428 6.209zM54.15 81.335l3.199 4.663 2.594-7.81zM18.75 100l2.845-4.409-6.432-1.649zM36.771 42.742l-6.699-5.679 1.126 6.433zM87.009 76.913l-1.888 8.002 8.067-3.502zM80.775 79.451l-3.299 6.842 7.645-1.378zM44.52 6.05l-6.435-.662 1.266 6.79zM31.198 43.496l3.114 7.059 2.459-7.813zM80.347 50.398l-5.953 3.839 6.841 1.625zM79.521 26.977l6.638-2.272-5.406-4.814zM5.669 85.321l2.335 6.606 5.762-5.751zM19.768 85.837l-6.002.339 6.229 4.697zM87.157 68.652l-.148 8.261 5.933-4.445zM70.376 10.636l3.375 5.775 2.337-6.447zM63.192 59.209l-5.377 4.816 6.472 1.074zM27 93.647l7.653-.588-4.512-5.622z"/><path d="M74.947 47.349l-4.6 2.647 4.047 4.241zM18.75 100l-3.587-6.058L12.5 100zM61.59 54.051l-4.408-4.066.308 7.865zM64.287 65.099l5.153-5.607-6.248-.283zM15.345 33.825l6.666 1.912-5.138-7.411zM34.653 93.059l6.103 1.258-4.423-7.402zM0 81.25l6.146-4.76L0 75zM7.28 58.391L0 62.5l5.547 2.349zM11.052 24.941l-2.415 6.6 8.236-3.215zM20.967 76.087l-7.139 3.759 4.942.764zM8.637 31.541l4.04 7.856 2.668-5.572z"/><path d="M8.637 31.541l6.708 2.284 1.528-5.499zM7.704 9.538L0 12.5l7.38 5.99z"/><path d="M0 18.75l7.38-.26L0 12.5zM74.394 54.237l-4.047-4.241-3.221 4.199zM80.061 33.093l6.727-.757-7.267-5.359zM80.061 33.093l-5.622 3.135 7.269 2.755zM87.435 53.497l6.476-3.25-6.97-3.122zM25 100h6.25L27 93.647zM19.768 85.837l5.425-3.267-6.423-1.96zM39.423 68.935l5.884 3.019-1.796-7.457z"/><path d="M30.141 87.437l-4.948-4.867-.5 5.899zM34.653 93.059L37.5 100l3.256-5.683z"/><path d="M40.756 94.317L37.5 100h6.25zM62.706 31.156l2.215-5.112-6.529 1.452zM70.376 10.636L65.854 6.61l-.235 7.548z"/></svg>