<svg xmlns="http://www.w3.org/2000/svg" viewBox="0 0 100 100"><style>path{fill:none;stroke:#000;stroke-width:1;stroke-linejoin:bevel}</style><path d="M64.287 65.099l-4.563 5.959 5.555.599zm-39.594 23.37L27 93.647l3.141-6.21zM5.547 64.849l7.326.839-5.593-7.297zM25.985 54.48l-6.421.746 6.601 5.059zm20.721 25.599l-9.182-4.991 2.279 6.556zm-9.182-4.991l-5.699-3.617.771 9.501zM16.685 21.759l-5.633 3.182 5.821 3.385zM24.756 5.59L18.75 0l.058 6.28zm15.047 76.054l-2.279-6.556-4.928 5.884zm26.655-3.137l4.277-6.167-5.456-.683zm.668-24.312l2.314 5.297 4.954-5.255zm.875-9.277l-6.711-2.972 2.812 7.136zm-49.426-3.434l-5.347 4.63 6.993 2.149zM100 37.5l-6.522-1.813.406 7.575zM80.347 50.398l7.088 3.099-.494-6.372zm0 0l.816-5.641-6.216 2.592zM100 56.25l-6.089-6.003-.468 7.418zm-47.981-1.282l-5.279 3.905 6.231 2.369zM31.961 21.075l-6.081-4.608-2.421 5.409zM49.703 66.16l3.217 7.943 1.936-5.841zm3.538 29.188l-2.779-7.208-3.446 6.338zm40.544-80.755l-.948 7.115L100 18.75zm-37.591 4.322l-2.806-6.01-2.913 5.641zM28.075 76.862l-2.706-5.033-4.402 4.258zM68.308 30.75l-1.48 5.576 7.611-.098zm-26.811-5.779l-3.006-5.622-2.308 7.781zM56.25 100l-3.009-4.652L50 100zM76.088 9.964l5.471 3.153 1.147-6.574zm-43.457 4.641l5.86 4.744.86-7.171zm54.526 54.047l-5.859-2.717 1.035 6.798zM69.778 85.723l7.698.57-2.767-8.191z"/><path d="M42.436 88.397l4.58 6.081 3.446-6.338zm21.824 3.965l-5.203 3.375L62.5 100zm4.048-61.612l6.131 5.478-.623-5.569zM32.555 58.778l1.848 6.92 4.794-5.352zm48.629 1.971l-5.511.495 5.625 4.691zM49.703 66.16l-2.963-7.287-3.229 5.624zm21.076-25.355l3.66-4.577-7.611.098zm3.615 13.432l1.279 7.007 5.562-5.382z"/><path d="M43.511 64.497l3.229-5.624-7.543 1.473zM61.29 41.946l-7.562 1.801 3.454 6.238zM4.934 25.633L0 18.75V25zm46.569-19.46l-4.381 5.705 6.266 1.027zm7.66 29.029l-.771-7.706-4.364 4.197zM0 93.75L6.25 100l1.754-8.073zm68.222-73.458l-3.301 5.752 5.502-.509zm-.221 24.626l6.946 2.431-4.168-6.544zM27 93.647L31.25 100l3.403-6.941zm-11.837.295l6.432 1.649-1.6-4.718zm71.625-61.606l1.242 8.268 5.448-4.917zm1.242 8.268l-6.867 4.153 5.778 2.368zM81.25 0l1.456 6.543L87.5 0zM65.854 6.61L62.5 0l-3.289 7.181zM23.459 21.876l-.112 7.213 6.289.175zm-9.631 57.97l-5.229 1.108 5.167 5.222zm1.418-63.701L7.38 18.49l9.305 3.269zm58.505.266l7.808-3.294-5.471-3.153zM18.575 41.484l1.646 6.779 4.627-5.894zm56.372 5.865l1.307-5.186-5.475-1.358z"/><path d="M27 93.647l-2.307-5.178-4.698 2.404zM15.246 16.145L7.704 9.538 7.38 18.49zm17.385-1.54l-.67 6.47 6.53-1.726zm52.49 70.31l6.09 6.4 1.977-9.902zM8.599 80.954l-2.93 4.367 8.097.855zM25.985 54.48l6.57 4.298 1.757-8.223zm-12.757-8.366l-6.726-1.903.03 6.76zm54.773-1.196l2.778-4.113-3.951-4.479zm13.36 48.307l-3.885-6.932-4.818 6.693zM18.808 6.28l-5.617-1.458 1.392 5.638zm62.553 86.945l-8.703-.239L75 100zM100 62.5l-6.557-4.835-.148 7.352zM43.75 0l-5.665 5.388 6.435.662zm6.725 18.546l2.913-5.641-6.266-1.027zM36.183 27.13l-6.547 2.134 6.647 5.28zM65.854 6.61l4.522 4.026 1.524-5.58zm-6.643.571l.883 6.407 5.76-6.978zm-15.7 57.316l1.796 7.457 4.396-5.794zm-30.834-25.1l.551 6.717 5.347-4.63zm29.266-1.336l5.546 4.552.628-6.475zm5.546 4.552l1.701 6.281 4.538-5.147z"/><path d="M36.283 34.544l-6.647-5.28.436 7.799zm16.935-10.011l-2.743-5.987-3.646 4.649zM37.5 0h-6.25l6.835 5.388zm-25 0H6.25l6.941 4.822zM0 6.25v6.25l7.704-2.962zm15.163 87.692l-1.397-7.766-5.762 5.751zM6.471 70.519l6.961 3.278-.559-8.109zm8.775-54.374l5.806-4.059-6.469-1.626zm39.61 52.117l-1.936 5.841 6.804-3.045zm26.505 24.963l3.76-8.31-7.645 1.378zm-.126-37.363l5.71 5.298.49-7.663zm5.922 12.79l-.212-7.492-5.647 4.775zM67.126 54.195l-3.024-5.113-2.512 4.969zM7.38 18.49l-2.446 7.143 6.118-.692zm83.831 72.825L87.5 100h6.25zm-34.496-.447l-6.253-2.728 2.779 7.208z"/><path d="M8.599 80.954l4.833-7.157-7.286 2.693zm12.996 14.637L25 100l2-6.353zm-8.163-21.794l7.535 2.29-1.055-7.137zm45.625 21.94L56.25 100h6.25zM20.472 61.619l-6.268-2.788-1.331 6.857z"/><path d="M19.912 68.95l.56-7.331-7.599 4.069zm67.033-7.79l-5.761-.411.114 5.186zM93.75 0l-5.598 4.922 5.912 2.491zM76.254 42.163l5.454-3.18-7.269-2.755zM40.756 94.317L43.75 100l3.266-5.522zm-20.988-8.48l.227 5.036 4.698-2.404zm19.655-16.902l-.226-8.589-4.794 5.352zM5.547 64.849L0 62.5v6.25zM39.722 54.48l5.642-.658-3.314-5.511zm53.492-25.82L100 25l-7.163-3.292zM88.03 40.604l-1.089 6.521 6.943-3.863zm-45.98 7.707l5.439-5.698-5.315.688zm23.229 23.346l5.313-5.842-6.305-.716zm7.379 21.329l-8.398-.624L68.75 100zM42.204 31.462l-.261 6.599 6.174-1.923zM43.75 0l.77 6.05L50 0zm49.192 72.468L100 68.75l-6.705-3.733zM62.343 84.823l1.917 7.539 5.518-6.639zm14.033-15.449l-1.667 8.728 7.624-5.369zM54.15 81.335l5.793-3.147-7.023-4.085zM22.011 35.737l-3.436 5.747 6.273.885zM7.28 58.391l6.166-5.981-6.914-1.439zm67.429 19.711l2.767 8.191 3.299-6.842zm-8.251.405l-1.179-6.85-5.336 6.531zM77.523 4.834L75 0l-3.1 5.056zM58.392 27.496l6.529-1.452-3.464-4.933zm.819-20.315l-5.823 5.724 6.706.683zM50 0l1.503 6.173L56.25 0zM0 56.25l6.532-5.279L0 50zm36.283-21.706l-6.211 2.519 6.699 5.679z"/><path d="M13.432 73.797l6.48-4.847-7.039-3.262zm16.64-36.734l-.436-7.799-7.625 6.473zm46.182 5.1l-1.815-5.935-3.66 4.577zm17.63 1.099l6.116.488V37.5z"/><path d="M16.873 28.326l5.138 7.411 1.336-6.648zm53.474 21.67l-2.346-5.078-3.899 4.164zm-46.888-28.12l2.421-5.409-4.828-4.381zm-4.884 19.608l-3.23-7.659-2.668 5.572zm62.178-21.593l5.406 4.814.926-7.259zM13.446 52.41l-.218-6.296-6.696 4.857zm52.408-45.8l-5.76 6.978 5.525.57z"/><path d="M65.619 14.158l8.132 2.253-3.375-5.775zm10.635 28.005l-1.307 5.186 6.216-2.592zM57.49 57.85l5.702 1.359-1.602-5.158zm-15.44-9.539l-5.279-5.569-2.459 7.813zM68.308 30.75l5.508-.091-3.393-5.124zm4.35 62.236l-2.88-7.263-5.518 6.639zm-42.517-5.549l6.192-.522-3.737-5.943zm-4.948-4.867l-5.425 3.267 4.925 2.632zm31.522 8.298l.634-4.87-6.887 2.142zm-30.55-30.583l-5.693 1.334 6.616 4.522zm1.248-12.014l-2.565-5.902-4.627 5.894zm6.899 2.284l5.41 3.925 2.328-6.169zm33.91-30.263l5.529-3.881-8.132-2.253zm-26.018 11.17l5.946-2.347-6.653-4.144zM44.52 6.05l-5.169 6.128 7.771-.3zM100 18.75l-7.163 2.958L100 25zM13.432 73.797l.396 6.049 7.139-3.759zm19.199-59.192l-5.359-3.507-1.392 5.369zM13.432 73.797l-4.833 7.157 5.229-1.108zM0 75l6.471-4.481L0 68.75zm15.163 18.942l-7.159-2.015L12.5 100zM0 25v6.25l4.934-5.617zm53.728 18.747l7.562-1.801-7.433-4.005zM25.985 54.48l1.428-6.209-7.192-.008zm48.409-.243l-4.954 5.255 6.233 1.752zm-31.958 34.16l-2.633-6.753-3.47 5.271z"/><path d="M65.619 14.158l-5.525-.57 1.363 7.523zM0 81.25l5.669 4.071 2.93-4.367zm31.825-9.779l-6.456.358 2.706 5.033zm7.598-2.536l-7.598 2.536 5.699 3.617zM50 100l-2.984-5.522L43.75 100zm-5.597-82.358l6.072.904-3.353-6.668zm20.518 8.402l3.387 4.706 2.115-5.215zm28.557 9.643l-.264-7.027-6.426 3.676z"/><path d="M93.478 35.687L100 31.25l-6.786-2.59zm-6.393-18.241l5.752 4.262.948-7.115zM52.019 54.968l-6.655-1.146 1.376 5.051zm-32.455.258l-6.118-2.816.758 6.421zM71.9 5.056L75 0h-6.25zM46.829 23.195l-5.332 1.776 6.653 4.144zm34.73-10.078l-7.808 3.294 7.002 3.48zm.149 25.866l-.545 5.774 6.867-4.153zm-54.62 27.158l-7.176 2.809 5.457 2.879zm5.467-7.363l-6.39 1.507.923 5.856zm48.68-2.916l-.051 4.887 5.761.411zM57.349 85.998l4.994-1.175-2.4-6.635zm24.21-72.881l6.535-2.044-5.388-4.53zm6.593-8.195L93.75 0H87.5zm-60.077 71.94l-2.882 5.708 7.403-1.598zM12.873 65.688l-7.326-.839.924 5.67zm19.758-51.083l-6.751 1.862 6.081 4.608zm28.826 6.506l-1.363-7.523-3.9 5.327z"/><path d="M81.163 44.757l.545-5.774-5.454 3.18zM46.829 23.195l-2.426-5.553-2.906 7.329zM88.03 40.604l-1.242-8.268-5.08 6.647zM12.873 65.688l1.331-6.857-6.924-.44zM6.532 50.971l-.03-6.76L0 50zm58.389-24.927l3.301-5.752-6.765.819zm23.173-14.971l-1.009 6.373 6.7-2.853zm-83.16 14.56L0 31.25l8.637.291zm26.264 17.863l-1.126-6.433-5.224 5.306zM68.75 100H75l-2.342-7.014zm13.583-27.267l-1.558 6.718 6.234-2.538zM50.462 88.14l-3.756-8.061-4.27 8.318zm3.688-6.805l-1.23-7.232-6.214 5.976zm2.044-62.42l-2.976 5.618 5.174 2.963zm17.622 11.744L75 22.961l-4.577 2.574zM47.489 42.613l6.368-4.672-5.74-1.803z"/><path d="M86.788 32.336l-6.727.757 1.647 5.89zM0 87.5l8.004 4.427-2.335-6.606z"/><path d="M0 87.5l5.669-2.179L0 81.25zm18.77-6.89l6.423 1.96-4.226-6.483zm40.393-45.408l-5.306 2.739 7.433 4.005zM39.351 12.178l-.86 7.171 5.912-1.707zm-2.58 30.564l5.403.559-.231-5.24zM49.703 66.16l5.153 2.102-1.885-7.02zM19.995 90.873l1.6 4.718L27 93.647zm37.187-40.888l-5.163 4.983 5.471 2.882zm-5.163 4.983l.952 6.274 4.519-3.392zm14.439 23.539l3.32 7.216 4.931-7.621zm-34.633-7.036l-3.75 5.391 4.521 4.11z"/><path d="M57.815 64.025l-.325-6.175-4.519 3.392zm16.579-9.788l5.953-3.839-5.4-3.049zM59.163 35.202l-5.135-3.509-.171 6.248zm11.26-9.667L75 22.961l-6.778-2.669zM100 6.25l-5.936 1.163L100 12.5zm0 0V0h-6.25zM42.05 48.311l.124-5.01-5.403-.559zm34.326 21.063l5.957 3.359-1.035-6.798zm-32.865-4.877l-4.314-4.151.226 8.589zm-22.544 11.59l4.226 6.483 2.882-5.708zm38.09 19.65l5.203-3.375-7.545-1.494zm4.135-36.528l6.248.283-2.314-5.297zM36.283 34.544l5.921-3.082-6.021-4.332zm10.423 45.535l3.756 8.061 3.688-6.805zm-27.936.531l-5.004 5.566 6.002-.339zM37.5 100l-2.847-6.941L31.25 100zm-2.847-6.941l1.68-6.144-6.192.522z"/><path d="M36.333 86.915l3.47-5.271-7.207-.672zm17.695-55.222l4.364-4.197-5.174-2.963zm39.186-3.033L100 31.25V25zM19.912 68.95l7.176-2.809-6.616-4.522zm-5.708-10.119l-.758-6.421-6.166 5.981zM44.52 6.05l6.983.123L50 0zm6.983.123l1.885 6.732 5.823-5.724zm1.417 67.93l-7.613-2.149 1.399 8.125zm40.022-1.635l.353-7.451-6.138 3.635zM75 22.961l-1.249-6.55-5.529 3.881zm-4.408 42.854l.143 6.525 5.641-2.966zM100 87.5l-8.789 3.815L100 93.75zm-43.285 3.368l-3.474 4.48 5.816.389zm-4.696-35.9l5.163-4.983-7.992-1.091zM87.009 76.913l.148-8.261-4.824 4.081zm-7.488-49.936l7.267 5.359-.629-7.631zm-14.242 44.68l-5.555-.599.219 7.13zm-22.843 16.74l-1.68 5.92 6.26.161zM71.9 5.056l4.188 4.908 1.435-5.13zM13.228 46.114l-.551-6.717-6.175 4.814zm74.207 7.383l-.49 7.663 6.498-3.495z"/><path d="M80.775 79.451l1.558-6.718-7.624 5.369zM81.25 100l.111-6.775L75 100zm11.938-18.587l-.246-8.945-5.933 4.445zM81.361 93.225l9.85-1.91-6.09-6.4zM93.75 100H100v-6.25zM0 6.25l7.704 3.288L6.25 0z"/><path d="M0 0v6.25L6.25 0zm23.459 21.876l-2.407-9.79-5.806 4.059zM4.934 25.633l3.703 5.908 2.415-6.6zM49.19 48.894l-3.826 4.928 6.655 1.146zm8.625 15.131l-4.844-2.783 1.885 7.02zm0 0l1.909 7.033 4.563-5.959zM12.5 100l-4.496-8.073L6.25 100zm40.741-4.652l-6.225-.87L50 100zM34.312 50.555l-3.114-7.059-3.785 4.775zM6.146 76.49l7.286-2.693-6.961-3.278zm19.223-4.661l-5.457-2.879 1.055 7.137zm33.688 23.908l-5.816-.389L56.25 100zm-19.86-35.391l7.543-1.473-7.018-4.393zm40.324-33.369l1.232-7.086L75 22.961zM64.102 49.082l-2.812-7.136-4.108 8.039zM26.165 60.285l6.39-1.507-6.57-4.298zM0 100h6.25L0 93.75zm26.165-39.715l-6.601-5.059.908 6.393zm19.142 11.669l-7.783 3.134 9.182 4.991zm8.421-28.207l.129-5.806-6.368 4.672zM37.5 0l.585 5.388L43.75 0zm22.443 78.188l2.4 6.635 4.115-6.316z"/><path d="M49.19 48.894l-7.14-.583 3.314 5.511zM32.596 80.972l-7.403 1.598 4.948 4.867zm34.53-26.777l3.221-4.199-6.245-.914z"/><path d="M39.722 54.48l7.018 4.393-1.376-5.051zm-.525 5.866l.525-5.866-7.167 4.298zm-33.65 4.503L0 68.75l6.471 1.769zm9.798-31.024l3.23 7.659 3.436-5.747zM31.25 0l-6.494 5.59 7.145 1.542zm-1.614 29.264l2.325-8.189-8.502.801zm1.562 14.232l-6.35-1.127 2.565 5.902zM56.25 0l-4.747 6.173 7.708 1.008zM13.191 4.822L18.75 0H12.5zm49.515 26.334l4.122 5.17 1.48-5.576zm-12.231-12.61l-6.072-.904 2.426 5.553zM100 50l-6.089.247L100 56.25zM61.457 21.111l6.765-.819-2.603-6.134zM100 37.5v-6.25l-6.522 4.437zM31.901 7.132L24.756 5.59l2.516 5.508zm0 0l.73 7.473 6.72-2.427zM25 0h-6.25l6.006 5.59zM14.583 10.46l-6.879-.922 7.542 6.607zm79.328 39.787L100 43.75l-6.116-.488z"/><path d="M100 50v-6.25l-6.089 6.497zM13.191 4.822L7.704 9.538l6.879.922zm10.156 24.267l.112-7.213-6.586 6.45zm53.029 40.285l-.703-8.13-5.081 4.571zm-9.918 9.133l8.251-.405-3.974-5.762zm20.977-25.01l6.008 4.168.468-7.418zm5.753 27.916l-1.977 9.902L100 87.5zM81.25 100h6.25l-6.139-6.775zm12.045-34.983L100 68.75V62.5zm-12.52 14.434l4.346 5.464 1.888-8.002z"/><path d="M100 75l-7.058-2.532.246 8.945zm-60.577-6.065l-5.02-3.237-2.578 5.773zM25.985 54.48l-5.764-6.217-.657 6.963zm1.103 11.661l-1.719 5.688 6.456-.358zm35.255 18.682l7.435.9-3.32-7.216zm-42.348 6.05l-6.229-4.697 1.397 7.766zM18.77 80.61l-4.942-.764-.062 6.33zm6.078-38.241l5.224-5.306-8.061-1.326zM5.72 37.533L0 43.75l6.502.461zm2.879 43.421L6.146 76.49 0 81.25zm6.647-64.809l1.439 5.614 6.774.117zm1.439 5.614L7.38 18.49l3.672 6.451z"/><path d="M0 43.75l5.72-6.217L0 37.5zm48.117-7.612l5.74 1.803.171-6.248zM75 22.961l-1.184 7.698 5.705-3.682zm-10.079 3.083l-2.215 5.112 5.602-.406zM100 12.5l-5.936-5.087-.279 7.18zM38.085 5.388l-6.184 1.744 7.45 5.046z"/><path d="M0 37.5l5.72.033L0 31.25zM65.854 6.61L68.75 0H62.5zm14.207 26.483l-6.245-2.434.623 5.569zm7.969 7.511l5.854 2.658-.406-7.575zM36.183 27.13l2.308-7.781-6.53 1.726zM13.191 4.822L6.25 0l1.454 9.538zm43.003 14.093l-5.719-.369 2.743 5.987zm-9.488 61.164l-6.903 1.565 2.633 6.753zM6.502 44.211l6.175-4.814-6.957-1.864zm56.204-13.055l-4.314-3.66.771 7.706zm-50.029 8.241l-4.04-7.856-2.917 5.992zm57.915 26.418l-5.313 5.842 5.456.683zM23.347 29.089l-1.336 6.648 7.625-6.473zM18.75 100H25l-3.405-4.409zm28.739-57.387l-5.439 5.698 7.14.583zM6.146 76.49l.325-5.971L0 75zm1.858 15.437L0 87.5v6.25zm71.517-64.95l-5.705 3.682 6.245 2.434zm14.264-12.384L100 18.75V12.5zM36.183 27.13l6.021 4.332-.707-6.491zM25.88 16.467l1.392-5.369-6.22.988zm37.312 42.742l3.934-5.014-5.536-.144zm1.068 33.153L62.5 100h6.25zm10.687-45.013l-6.946-2.431 2.346 5.078zM48.15 29.115l-.033 7.023 5.911-4.445zM71.9 5.056L68.75 0l-2.896 6.61zM87.5 0l-4.794 6.543 5.446-1.621zM34.403 65.698l-7.315.443 4.737 5.33zM20.221 48.263l-6.993-2.149.218 6.296zm61.14 44.962L87.5 100l3.711-8.685zM100 68.75l-7.058 3.718L100 75zM53.728 43.747l-4.538 5.147 7.992 1.091zm2.987 47.121l5.628-6.045-4.994 1.175zm23.632-40.47l6.594-3.273-5.778-2.368zM36.283 34.544l5.66 3.517.261-6.599zm34.309 31.271l5.081-4.571-6.233-1.752zm20.619 25.5L93.75 100l6.25-6.25zM100 81.25V75l-6.812 6.413zm-6.812.163L100 87.5v-6.25zM6.502 44.211L0 43.75V50zm63.874-33.575l5.712-.672L71.9 5.056zm-55.793-.176l6.469 1.626-2.244-5.806zm10.173-4.87L31.25 0H25zm68.687 52.075L100 62.5v-6.25zm-.148 7.352l.148-7.352-6.498 3.495zM38.085 5.388L31.25 0l.651 7.132z"/><path d="M88.152 4.922l-.058 6.151 5.97-3.66zm-55.521 9.683l-.73-7.473-4.629 3.966zm-15.946 7.154l.188 6.567 6.586-6.45zm43.409-8.171l-6.706-.683 2.806 6.01zM24.756 5.59l-5.948.69 2.244 5.806zm17.418 37.711l5.315-.688-5.546-4.552zM4.934 25.633L7.38 18.49 0 18.75zm27.621 33.145l-5.467 7.363 7.315-.443zM50.462 88.14l6.887-2.142-3.199-4.663zm13.825-23.041l6.305.716-1.152-6.323zm-9.431 3.163l4.868 2.796-1.909-7.033zm25.897-48.371l6.332-2.445-5.526-4.329zm-21.59 15.311l7.665 1.124-4.122-5.17zm4.939 13.88l-6.92.903 4.408 4.066zm22.983-31.636l-.926 7.259 6.678-2.997zM44.52 6.05l2.602 5.828 4.381-5.705zm48.317 15.658l-6.678 2.997 7.055 3.955zm1.227-14.295l-5.97 3.66 5.691 3.52z"/><path d="M86.159 24.705l.629 7.631 6.426-3.676zM77.523 4.834L81.25 0H75zM38.491 19.349l3.006 5.622 2.906-7.329zm-18.019 42.27l-.908-6.393-5.36 3.605zm12.083-2.841l7.167-4.298-5.41-3.925zm43.118 2.466l.703 8.13 4.922-3.439zM52.92 74.103l-3.217-7.943-4.396 5.794zm40.375-9.086l-6.35-3.857.212 7.492zM52.92 74.103l7.023 4.085-.219-7.13zM93.75 0l.314 7.413L100 6.25zM53.218 24.533l-6.389-1.338 1.321 5.92zm13.61 11.793l-5.538 5.62 6.711 2.972zm13.925-16.435l-7.002-3.48L75 22.961zM36.771 42.742l5.172-4.681-5.66-3.517z"/><path d="M48.15 29.115l-5.946 2.347 5.913 4.676zM24.756 5.59l-3.704 6.496 6.22-.988zM6.532 50.971L0 56.25l7.28 2.141zm55.811 33.852l-5.628 6.045 7.545 1.494zm19.216-71.706l5.526 4.329 1.009-6.373zm-8.901 79.869l4.818-6.693-7.698-.57zm-5.83-56.66l-7.665-1.124 2.127 6.744zM48.15 29.115l5.878 2.578-.81-7.16zm33.085 26.747l-5.562 5.382 5.511-.495zM81.25 0l-3.727 4.834 5.183 1.709zM19.564 55.226l.657-6.963-6.775 4.147zM5.72 37.533l2.917-5.992L0 31.25zm52.095 26.492l5.377-4.816-5.702-1.359zm23.42-8.163l6.2-2.365-7.088-3.099z"/><path d="M7.28 58.391L0 56.25v6.25zm86.631-8.144l-.027-6.985-6.943 3.863zM88.152 4.922l-5.446 1.621 5.388 4.53zM56.25 0l2.961 7.181L62.5 0zm21.273 4.834l-1.435 5.13 6.618-3.421zM70.735 72.34l3.974 5.762 1.667-8.728zM18.75 0l-5.559 4.822 5.617 1.458zm26.557 71.954l-5.884-3.019-1.899 6.153zm4.396-5.794l3.268-4.918-6.231-2.369zm-2.581-54.282l-7.771.3 5.052 5.464zM36.183 27.13l-4.222-6.055-2.325 8.189zm22.209.366l3.065-6.385-5.263-2.196zM36.333 86.915l4.423 7.402 1.68-5.92zm-2.021-36.36l-6.899-2.284-1.428 6.209zm19.838 30.78l3.199 4.663 2.594-7.81zM18.75 100l2.845-4.409-6.432-1.649zm18.021-57.258l-6.699-5.679 1.126 6.433zm50.238 34.171l-1.888 8.002 8.067-3.502zm-6.234 2.538l-3.299 6.842 7.645-1.378zM44.52 6.05l-6.435-.662 1.266 6.79zM31.198 43.496l3.114 7.059 2.459-7.813zm49.149 6.902l-5.953 3.839 6.841 1.625zm-.826-23.421l6.638-2.272-5.406-4.814zM5.669 85.321l2.335 6.606 5.762-5.751zm14.099.516l-6.002.339 6.229 4.697zm67.389-17.185l-.148 8.261 5.933-4.445zM70.376 10.636l3.375 5.775 2.337-6.447zm-7.184 48.573l-5.377 4.816 6.472 1.074zM27 93.647l7.653-.588-4.512-5.622z"/><path d="M74.947 47.349l-4.6 2.647 4.047 4.241zM18.75 100l-3.587-6.058L12.5 100zm42.84-45.949l-4.408-4.066.308 7.865zm2.697 11.048l5.153-5.607-6.248-.283zM15.345 33.825l6.666 1.912-5.138-7.411zm19.308 59.234l6.103 1.258-4.423-7.402zM0 81.25l6.146-4.76L0 75zm7.28-22.859L0 62.5l5.547 2.349zm3.772-33.45l-2.415 6.6 8.236-3.215zm9.915 51.146l-7.139 3.759 4.942.764zM8.637 31.541l4.04 7.856 2.668-5.572z"/><path d="M8.637 31.541l6.708 2.284 1.528-5.499zM7.704 9.538L0 12.5l7.38 5.99z"/><path d="M0 18.75l7.38-.26L0 12.5zm74.394 35.487l-4.047-4.241-3.221 4.199zm5.667-21.144l6.727-.757-7.267-5.359zm0 0l-5.622 3.135 7.269 2.755zm7.374 20.404l6.476-3.25-6.97-3.122zM25 100h6.25L27 93.647zm-5.232-14.163l5.425-3.267-6.423-1.96zm19.655-16.902l5.884 3.019-1.796-7.457z"/><path d="M30.141 87.437l-4.948-4.867-.5 5.899zm4.512 5.622L37.5 100l3.256-5.683z"/><path d="M40.756 94.317L37.5 100h6.25zm21.95-63.161l2.215-5.112-6.529 1.452zm7.67-20.52L65.854 6.61l-.235 7.548z"/></svg>